<svg id="Layer_1" data-name="Layer 1" xmlns="http://www.w3.org/2000/svg" viewBox="0 0 370.39 391.66">
  <defs>
    <style>
      .cls-1 {
        fill: #f7d4ed;
      }

      .cls-2 {
        fill: none;
      }
    </style>
  </defs>
  <title>film</title>
  <path class="cls-1" d="M327.83,8.68V51.24H285.28V8.68H115.07V51.24H72.51V8.68H30v383H72.51V349.11h42.55v42.55H285.28V349.11h42.55v42.55h42.55V8.68ZM115.07,306.56H72.51V264h42.55Zm0-85.11H72.51V178.9h42.55Zm0-85.11H72.51V93.79h42.55ZM327.83,306.56H285.28V264h42.55Zm0-85.11H285.28V178.9h42.55Zm0-85.11H285.28V93.79h42.55Z" transform="translate(-29.96 -8.68)"/>
  <path class="cls-2" d="M376.35,376.35h24v24h-24Z" transform="translate(-29.96 -8.68)"/>
</svg>
